<?xml version="1.0" encoding="iso-8859-1"?>
<!-- Generator: Adobe Illustrator 19.0.0, SVG Export Plug-In . SVG Version: 6.00 Build 0)  -->
<svg version="1.1" id="Capa_1" xmlns="http://www.w3.org/2000/svg" xmlns:xlink="http://www.w3.org/1999/xlink" x="0px" y="0px"
	 viewBox="0 0 464 464" style="enable-background:new 0 0 464 464;" xml:space="preserve">
<path style="fill:#29ABE2;" d="M360,312h64c13.255,0,24-10.745,24-24V112c0-13.255-10.745-24-24-24h-32v64H72V88H40
	c-13.255,0-24,10.745-24,24v176c0,13.255,10.745,24,24,24H360z"/>
<path style="fill:#E6E6E6;" d="M104,464V272l0,0h256l0,0v168c0,13.255-10.745,24-24,24H104L104,464z"/>
<path style="fill:#999999;" d="M336,464L336,464c-13.255,0-24-10.745-24-24l0,0v-24H64v24c0,13.255,10.745,24,24,24l0,0H336z"/>
<polygon style="fill:#E6E6E6;" points="104,120 104,0 312,0 360,48 360,120 "/>
<g>
	<path style="fill:#0071BC;" d="M72,312v-16c0-13.255,10.745-24,24-24h8v40H72z"/>
	<path style="fill:#0071BC;" d="M392,312v-16c0-13.255-10.745-24-24-24h-8v40H392z"/>
	<rect x="72" y="88" style="fill:#0071BC;" width="32" height="32"/>
</g>
<rect x="72" y="120" style="fill:#FBB03B;" width="320" height="32"/>
<polygon style="fill:#29ABE2;" points="312,0 312,48 360,48 "/>
<rect x="360" y="88" style="fill:#0071BC;" width="32" height="32"/>
<rect x="64" y="176" style="fill:#F7931E;" width="16" height="16"/>
<rect x="96" y="176" style="fill:#FBB03B;" width="16" height="16"/>
<rect x="128" y="176" style="fill:#F15A24;" width="16" height="16"/>
<g>
	<rect x="136" y="304" style="fill:#999999;" width="16" height="16"/>
	<rect x="168" y="304" style="fill:#999999;" width="160" height="16"/>
	<rect x="136" y="336" style="fill:#999999;" width="192" height="16"/>
	<rect x="136" y="368" style="fill:#999999;" width="192" height="16"/>
</g>
<g>
</g>
<g>
</g>
<g>
</g>
<g>
</g>
<g>
</g>
<g>
</g>
<g>
</g>
<g>
</g>
<g>
</g>
<g>
</g>
<g>
</g>
<g>
</g>
<g>
</g>
<g>
</g>
<g>
</g>
</svg>
